<svg id="scheme" xmlns="http://www.w3.org/2000/svg" viewBox="0 0 359.93 357.11"><defs><style>.cls-1{fill:#fff;fill-rule:evenodd;}</style></defs><title>blackhole</title><g id="swatch_copy_11" data-name="swatch copy 11"><g id="Shape_192_copy_3" data-name="Shape 192 copy 3"><path class="cls-1" d="M533.06,371.56c22.23-88,4.49-181.77-51-178.47-71.29,4.52-102,102-102,102C444.48,248.9,540,293.07,533.06,371.56Zm155.8-28c-4-59.64-90.65-85.32-90.65-85.32,41,53.88,1.78,133.78-68,128C608.43,404.82,691.81,390,688.87,343.56Zm-181.3,28c-22.23,88-4.5,181.77,51,178.47,71.29-4.52,102-102,102-102C596.14,494.22,500.64,450,507.57,371.56Zm0-16.5c-88-20.93-181.77-4.24-178.47,48,4.52,67.09,102,96,102,96C384.91,438.43,429.07,348.54,507.57,355.06Z" transform="translate(-329.01 -193)"/></g></g></svg>