<svg id="newlogo_copy" data-name="newlogo copy" xmlns="http://www.w3.org/2000/svg" viewBox="0 0 276.56 227.84"><defs><style>.cls-1,.cls-2{fill:#fff;}.cls-1{fill-rule:evenodd;}</style></defs><title>NewLogoSVG</title><g id="illuminati"><path class="cls-1" d="M242.84,45.7c-5.52-3.78-12.95-7.1-20.25-4.84-23.27,7.2-30.37-8.53-74.55-8.68-44.19.15-51.29,15.87-74.55,8.68-14.32-4.43-29.1,12.53-29.1,12.53l0,0a137.83,137.83,0,0,0,8.33,192.78c5.57,3.93,13.24,7.54,20.79,5.21,23.27-7.2,30.37,8.53,74.55,8.68,44.19-.15,51.29-15.87,74.55-8.68,5.68,1.76,11.43.14,16.3-2.44a137.85,137.85,0,0,0,4-203.21ZM147.31,248.16A102.67,102.67,0,1,1,250.19,145.48,102.77,102.77,0,0,1,147.31,248.16Z" transform="translate(-9.03 -32.19)"/><path class="cls-2" d="M146.74,74.4,75.63,197.34H217.85ZM176,168.61c-3.93,9-12,14.31-29.25,14.31s-25.32-5.31-29.25-14.31c-4.16-.92-13.64,10.62-13.41,8.54,7.17-33.7,42.66-31,42.66-31s35.49-2.65,42.66,31C189.63,179.23,180.15,167.69,176,168.61Z" transform="translate(-9.03 -32.19)"/><ellipse class="cls-2" cx="137.74" cy="132.55" rx="15.88" ry="15.86"/></g></svg>